<svg width="30" height="30" viewBox="0 0 30 30" fill="none" xmlns="http://www.w3.org/2000/svg">
<path d="M4.12126 6.54225C4.40304 5.34099 5.34099 4.40304 6.54225 4.12126V4.12126C7.58329 3.87707 8.66671 3.87707 9.70775 4.12126V4.12126C10.909 4.40304 11.847 5.34099 12.1287 6.54225V6.54225C12.3729 7.58329 12.3729 8.66671 12.1287 9.70775V9.70775C11.847 10.909 10.909 11.847 9.70775 12.1287V12.1287C8.66671 12.3729 7.58329 12.3729 6.54225 12.1287V12.1287C5.34099 11.847 4.40304 10.909 4.12126 9.70776V9.70776C3.87707 8.66671 3.87707 7.58329 4.12126 6.54225V6.54225Z" fill="white" stroke="white" stroke-width="1.5"/>
<path d="M4.12126 20.2922C4.40304 19.091 5.34099 18.153 6.54225 17.8713V17.8713C7.58329 17.6271 8.66671 17.6271 9.70775 17.8713V17.8713C10.909 18.153 11.847 19.091 12.1287 20.2922V20.2922C12.3729 21.3333 12.3729 22.4167 12.1287 23.4578V23.4578C11.847 24.659 10.909 25.597 9.70775 25.8787V25.8787C8.66671 26.1229 7.58329 26.1229 6.54225 25.8787V25.8787C5.34099 25.597 4.40304 24.659 4.12126 23.4578V23.4578C3.87707 22.4167 3.87707 21.3333 4.12126 20.2922V20.2922Z" fill="white" stroke="white" stroke-width="1.5"/>
<path d="M17.8713 6.54225C18.153 5.34099 19.091 4.40304 20.2922 4.12126V4.12126C21.3333 3.87707 22.4167 3.87707 23.4578 4.12126V4.12126C24.659 4.40304 25.597 5.34099 25.8787 6.54225V6.54225C26.1229 7.58329 26.1229 8.66671 25.8787 9.70775V9.70775C25.597 10.909 24.659 11.847 23.4578 12.1287V12.1287C22.4167 12.3729 21.3333 12.3729 20.2922 12.1287V12.1287C19.091 11.847 18.153 10.909 17.8713 9.70776V9.70776C17.6271 8.66671 17.6271 7.58329 17.8713 6.54225V6.54225Z" fill="white" stroke="white" stroke-width="1.5"/>
<path d="M17.8713 20.2922C18.153 19.091 19.091 18.153 20.2922 17.8713V17.8713C21.3333 17.6271 22.4167 17.6271 23.4578 17.8713V17.8713C24.659 18.153 25.597 19.091 25.8787 20.2922V20.2922C26.1229 21.3333 26.1229 22.4167 25.8787 23.4578V23.4578C25.597 24.659 24.659 25.597 23.4578 25.8787V25.8787C22.4167 26.1229 21.3333 26.1229 20.2922 25.8787V25.8787C19.091 25.597 18.153 24.659 17.8713 23.4578V23.4578C17.6271 22.4167 17.6271 21.3333 17.8713 20.2922V20.2922Z" fill="white" stroke="white" stroke-width="1.5"/>
</svg>
