<svg width="20" height="26" viewBox="0 0 20 26" fill="none" xmlns="http://www.w3.org/2000/svg">
<path d="M0 23.0164C0 19.5691 2.42475 16.6328 5.72006 16.0895L6.01689 16.0406C8.6556 15.6055 11.3444 15.6055 13.9831 16.0406L14.2799 16.0895C17.5752 16.6328 20 19.5691 20 23.0164C20 24.5064 18.8307 25.7143 17.3884 25.7143H2.61161C1.16926 25.7143 0 24.5064 0 23.0164Z" fill="white"/>
<path d="M15.8334 5.625C15.8334 8.7316 13.2217 11.25 10 11.25C6.77837 11.25 4.1667 8.7316 4.1667 5.625C4.1667 2.5184 6.77837 0 10 0C13.2217 0 15.8334 2.5184 15.8334 5.625Z" fill="white"/>
</svg>
