<svg width="50" height="50" viewBox="0 0 50 50" fill="none" xmlns="http://www.w3.org/2000/svg">
<g clip-path="url(#clip0_48_53)">
<path d="M25 0C11.1938 0 0 11.1938 0 25C0 38.8062 11.1938 50 25 50C38.8062 50 50 38.8062 50 25C50 11.1938 38.8062 0 25 0ZM25 46.875C12.9395 46.875 3.125 37.0605 3.125 25C3.125 12.9395 12.9395 3.125 25 3.125C37.0605 3.125 46.875 12.9395 46.875 25C46.875 37.0605 37.0605 46.875 25 46.875ZM32.7697 25.9613C33.3649 26.9685 33.6639 28.1434 33.6639 29.4892C33.6639 31.5552 33.0475 33.2764 31.8176 34.6527C30.5877 36.0321 28.8117 36.8439 26.4893 37.0881V40.625H23.529V37.1063C19.6563 36.7097 17.2606 34.4574 16.336 30.3559L20.9137 29.1626C21.3379 31.7413 22.7417 33.0292 25.1251 33.0292C26.239 33.0292 27.063 32.7546 27.5879 32.2021C28.1128 31.6497 28.3752 30.9845 28.3752 30.2032C28.3752 29.3945 28.1127 28.7811 27.5879 28.366C27.063 27.948 25.8941 27.4199 24.0845 26.7791C22.4579 26.2146 21.1853 25.6591 20.2697 25.1038C19.3542 24.5545 18.6096 23.7824 18.0389 22.7905C17.4682 21.7956 17.1813 20.6359 17.1813 19.3176C17.1813 17.5872 17.694 16.0277 18.7134 14.6423C19.7327 13.2599 21.3379 12.4145 23.5291 12.1063V9.375H26.4894V12.1063C29.7975 12.5031 31.9398 14.3738 32.9133 17.7216L28.8361 19.3939C28.0396 17.099 26.8127 15.9516 25.1466 15.9516C24.3104 15.9516 23.639 16.2079 23.1354 16.7206C22.6288 17.2333 22.3756 17.8559 22.3756 18.5853C22.3756 19.3299 22.6197 19.9006 23.108 20.3004C23.5933 20.6972 24.64 21.1885 26.2392 21.7774C27.997 22.4184 29.3764 23.0256 30.3743 23.5963C31.3751 24.1669 32.1717 24.9573 32.7697 25.9613Z" fill="black"/>
</g>
<defs>
<clipPath id="clip0_48_53">
<rect width="50" height="50" fill="white"/>
</clipPath>
</defs>
</svg>
